REM MD5 44bd2647a44de1e786b7a7559c88afc3
FILE "Gex (USA) (Rev 1).bin" BINARY
  TRACK 01 MODE2/2352
    INDEX 01 00:00:00
  TRACK 02 AUDIO
    INDEX 00 33:24:08
    INDEX 01 33:26:08
  TRACK 03 AUDIO
    INDEX 00 38:04:28
    INDEX 01 38:06:28
REM LEADOUT 38:12:24
